<?xml version="1.0" encoding="UTF-8" standalone="no"?>
<!-- Created with Inkscape (http://www.inkscape.org/) -->

<svg
   xmlns:dc="http://purl.org/dc/elements/1.1/"
   xmlns:cc="http://creativecommons.org/ns#"
   xmlns:rdf="http://www.w3.org/1999/02/22-rdf-syntax-ns#"
   xmlns:svg="http://www.w3.org/2000/svg"
   xmlns="http://www.w3.org/2000/svg"
   xmlns:sodipodi="http://sodipodi.sourceforge.net/DTD/sodipodi-0.dtd"
   xmlns:inkscape="http://www.inkscape.org/namespaces/inkscape"
   width="100mm"
   height="100mm"
   viewBox="0 0 100 100"
   version="1.1"
   id="svg8"
   inkscape:version="0.92.4 (5da689c313, 2019-01-14)"
   sodipodi:docname="keep-route-disabled.svg">
  <defs
     id="defs2" />
  <sodipodi:namedview
     id="base"
     pagecolor="#ffffff"
     bordercolor="#666666"
     borderopacity="1.0"
     inkscape:pageopacity="0.0"
     inkscape:pageshadow="2"
     inkscape:zoom="1.979899"
     inkscape:cx="287.88876"
     inkscape:cy="11.650177"
     inkscape:document-units="mm"
     inkscape:current-layer="g5448"
     showgrid="false"
     inkscape:window-width="1951"
     inkscape:window-height="1183"
     inkscape:window-x="654"
     inkscape:window-y="324"
     inkscape:window-maximized="0" />
  <metadata
     id="metadata5">
    <rdf:RDF>
      <cc:Work
         rdf:about="">
        <dc:format>image/svg+xml</dc:format>
        <dc:type
           rdf:resource="http://purl.org/dc/dcmitype/StillImage" />
        <dc:title></dc:title>
      </cc:Work>
    </rdf:RDF>
  </metadata>
  <g
     inkscape:label="レイヤー 1"
     inkscape:groupmode="layer"
     id="layer1"
     transform="translate(0,-197)">
    <g
       id="g5448"
       inkscape:export-xdpi="163.84"
       inkscape:export-ydpi="163.84">
      <rect
         ry="10.51461"
         y="211.11397"
         x="11.660744"
         height="79.375"
         width="79.375"
         id="rect5069"
         style="opacity:1;fill:#999999;fill-opacity:1;stroke:none;stroke-width:0.27123025;stroke-opacity:1"
         inkscape:export-xdpi="163.84"
         inkscape:export-ydpi="163.84" />
      <g
         transform="matrix(0.11904988,0,0,0.11904988,24.226089,218.28443)"
         id="g5356"
         inkscape:export-xdpi="163.84"
         inkscape:export-ydpi="163.84">
        <path
           inkscape:connector-curvature="0"
           d="m 226.99991,425.39429 c 25.11654,0 48.26765,-9.62463 66.19587,-25.60492 68.93975,-69.03611 119.9535,-154.87421 146.26848,-249.32833 2.73871,-8.29797 4.53556,-18.73234 4.53556,-29.58375 0,-44.8506 -30.69554,-82.59525 -74.02042,-93.80293 C 323.9411,15.75291 277.71818,9.99998 226.99992,9.99998 c -50.71826,0 -96.94119,5.75293 -142.97948,17.07438 -43.32489,11.20768 -74.02043,48.95233 -74.02043,93.80293 0,10.85141 1.79685,21.28578 4.53556,29.58375 26.31498,94.45412 77.32874,180.29222 146.26849,249.32833 17.92821,15.98029 41.07933,25.60492 66.19585,25.60492 z"
           id="plate"
           style="fill:#0140ff;fill-opacity:1;stroke:#ffffff;stroke-width:15.99999905;stroke-linecap:butt;stroke-linejoin:round;stroke-miterlimit:4;stroke-dasharray:none;stroke-opacity:1" />
        <path
           inkscape:connector-curvature="0"
           d="M 174.2614,261.32678 H 99.741135 c 3.599845,-23.15915 15.600565,-43.07917 36.002195,-59.76013 7.91743,-6.48186 13.43622,-11.94206 16.5564,-16.38061 3.72064,-5.40153 5.58099,-11.70218 5.58105,-18.90198 -6e-5,-5.76039 -1.32025,-10.55958 -3.96057,-14.39759 -3.47906,-5.15978 -8.57854,-7.73974 -15.29846,-7.73986 -13.91971,1.2e-4 -21.48013,10.19909 -22.68127,30.59692 h -14.22181 c 0.72143,-12.11781 3.60168,-21.71619 8.64075,-28.79517 6.71995,-9.36021 16.25973,-14.04038 28.61939,-14.04052 8.75971,1.4e-4 16.08026,2.51966 21.96167,7.55859 7.55851,6.4784 11.33781,15.359 11.33789,26.64185 -8e-5,15.59701 -8.87886,30.17585 -26.63636,43.73657 -15.12088,11.52104 -24.24136,24.24137 -27.36145,38.16101 h 55.98084 z m 63.7207,-126.0022 h 15.29846 v 82.62269 h 14.94141 v 12.23877 h -14.94141 v 31.14074 h -13.32092 v -31.14074 h -52.73987 v -12.60132 z m 1.97754,19.62159 -39.23767,63.0011 h 39.23767 z m 98.10242,8.45947 c -1.80182,-12.71839 -7.50189,-19.07763 -17.10022,-19.07776 -8.28007,1.3e-4 -14.69974,5.03918 -19.25904,15.11719 -4.20046,9.2396 -6.42153,22.02035 -6.6632,38.34228 6.84079,-9.96085 15.60054,-14.94132 26.27929,-14.9414 8.75971,8e-5 16.20111,3.23922 22.32422,9.7174 7.19963,7.56233 10.79948,17.52326 10.79956,29.88282 -8e-5,10.44071 -2.46101,19.44033 -7.38281,26.9989 -6.72004,10.31983 -16.13897,15.47974 -28.25684,15.47973 -11.04129,10e-6 -19.86147,-5.03905 -26.46057,-15.11718 -7.08253,-10.92038 -10.62379,-26.28108 -10.62378,-46.08216 -10e-6,-20.76041 3.12011,-37.62074 9.36036,-50.58105 6.96164,-14.27843 16.86214,-21.41771 29.70153,-21.41785 17.39862,1.4e-4 28.07915,10.55982 32.04163,31.67908 z m -19.08325,31.14075 c -7.0789,7e-5 -12.65812,3.18061 -16.73768,9.54162 -3.24099,5.03913 -4.86147,11.33795 -4.86145,18.89649 -2e-5,6.72001 1.14073,12.4805 3.42225,17.28149 3.9587,8.1592 10.07808,12.23879 18.35815,12.23877 6.71992,2e-5 12.05927,-2.99925 16.01807,-8.9978 3.60345,-5.28073 5.4052,-12.18197 5.40527,-20.70374 -7e-5,-7.79657 -1.56013,-14.15582 -4.68018,-19.07776 -3.84161,-6.11931 -9.48308,-9.179 -16.92443,-9.17907 z"
           id="number"
           style="font-style:normal;font-variant:normal;font-weight:normal;font-stretch:normal;font-size:180px;line-height:125;font-family:IPAGothic;text-align:center;text-anchor:middle;fill:#ffffff;fill-opacity:1;stroke:#ffffff;stroke-width:5px;stroke-linecap:butt;stroke-linejoin:miter;stroke-opacity:1" />
        <text
           x="238.12193"
           y="323.19922"
           transform="scale(0.951145,1.051364)"
           id="route"
           xml:space="preserve"
           style="font-style:normal;font-variant:normal;font-weight:normal;font-stretch:normal;font-size:45px;line-height:125;font-family:sans-serif;text-align:center;writing-mode:lr-tb;text-anchor:middle;display:inline;fill:#ffffff;fill-opacity:1;stroke:none;stroke-width:1px;stroke-linecap:butt;stroke-linejoin:miter;stroke-opacity:1">ROUTE</text>
        <path
           inkscape:connector-curvature="0"
           d="m 226.99991,432.09564 c 25.92675,0 49.82467,-9.93517 68.33122,-26.43106 71.1636,-71.26356 123.82295,-159.87123 150.98679,-257.37291 2.82706,-8.5657 4.68188,-19.33674 4.68188,-30.53827 0,-46.2977 -31.68572,-85.26018 -76.40818,-96.82948 C 327.06823,9.23718 279.35424,3.29864 226.99991,3.29864 174.64558,3.29864 126.93159,9.23718 79.40821,20.92392 34.68574,32.49322 3.00002,71.4557 3.00002,117.7534 c 0,11.20153 1.85481,21.97257 4.68187,30.53827 27.16385,97.50168 79.8232,186.10935 150.98682,257.37291 18.50653,16.49589 42.40446,26.43106 68.3312,26.43106 z"
           id="line"
           style="display:inline;fill:none;fill-opacity:1;stroke:#a0a0a0;stroke-width:1.9999994;stroke-linecap:butt;stroke-linejoin:round;stroke-miterlimit:4;stroke-dasharray:none;stroke-opacity:1" />
        <path
           inkscape:connector-curvature="0"
           d="m 297.94123,50.59376 c -1.93233,0.26349 -1.91331,2.74139 -2.75782,4.0625 -0.60538,1.33363 -1.2896,2.66375 -2.03906,3.89844 -3.17326,-0.04248 -6.53958,0.08441 -9.59375,-0.0625 0.0677,-2.04785 -1.42956,-3.83679 -2.00781,-5.76563 -0.28596,-1.31834 -1.50918,-2.52597 -2.95313,-2.03906 -1.71371,0.39321 -1.77112,2.67259 -0.87507,3.88933 0.34349,1.23611 1.68146,3.1306 1.43757,3.97786 -2.79137,0.1479 -5.66642,-0.27964 -8.41406,0.17968 -1.7538,0.77295 -1.23156,4.00947 0.80469,3.9375 4.66633,0.0185 9.33339,0.0024 14,0.0078 -0.70821,0.9718 -0.52106,3.30408 -2.17969,2.875 -2.73035,0.13172 -5.53055,-0.24401 -8.22656,0.14843 -1.82324,0.73164 -0.97176,3.18843 -1.16406,4.66407 0.0573,7.32241 -0.1113,14.66705 0.0781,21.97656 0.45386,1.86825 2.88674,1.30692 4.26563,1.36719 8.30731,-0.04999 16.63371,0.09796 24.92968,-0.07032 1.6004,-0.24539 1.63439,-2.22031 1.47657,-3.46093 -0.0569,-7.74175 0.11068,-15.50547 -0.0781,-23.23438 -0.47882,-1.875 -2.92051,-1.35737 -4.32812,-1.39062 -3.78125,0 -7.5625,0 -11.34375,0 0.41473,-0.94823 0.8165,-1.89404 1.11718,-2.875 5.57316,-0.07299 11.1798,0.13932 16.73438,-0.09375 2.03223,-0.50173 1.69073,-4.16331 -0.53906,-4.03125 -2.77865,0 -5.5573,0 -8.33594,0 0.90464,-2.04695 2.25683,-4.08783 2.375,-6.35157 -0.11832,-1.1422 -1.29517,-1.76148 -2.38281,-1.60937 z m -39.33594,1.53125 c -1.81462,0.15503 -2.67326,2.89745 -0.97656,3.84375 2.90458,1.86174 5.46823,4.2092 7.99218,6.50781 1.79289,1.13938 4.04708,-1.43409 2.71875,-3.07031 -2.60709,-2.78546 -5.66344,-5.22997 -8.94531,-7.20313 -0.25483,-0.07663 -0.52298,-0.10623 -0.78906,-0.07812 z M 146.1756,52.35938 c -1.63764,0.11832 -1.92724,2.07196 -1.70312,3.38282 0.0428,14.63629 -0.0849,29.28597 0.0625,43.91406 0.37565,1.84579 2.71256,1.53399 4.09375,1.49219 14.28996,-0.0373 28.59316,0.074 42.875,-0.0547 1.68525,-0.19396 1.75776,-2.27117 1.59375,-3.57031 -0.0429,-14.56081 0.085,-29.13468 -0.0625,-43.6875 -0.36117,-1.85319 -2.70334,-1.56232 -4.09375,-1.5 -14.2547,0.01576 -28.51337,-0.03145 -42.76563,0.02343 z m 42.54688,4.35157 c 0,13.38541 0,26.77083 0,40.15625 -13.29167,0 -26.58334,0 -39.875,0 0,-13.38542 0,-26.77084 0,-40.15625 13.29166,0 26.58333,0 39.875,0 z m -35.19532,3.88281 c -2.29364,-0.07268 -2.54918,3.80592 -0.375,4.17187 4.34437,0.17415 8.71611,0.01607 13.07032,0.07032 0,2.53125 0,5.0625 0,7.59375 -3.86716,0.10523 -7.78685,-0.2002 -11.625,0.13281 -1.95825,0.57223 -1.60395,4.00879 0.47656,4.08594 3.71271,0.0768 7.43299,0.0076 11.14844,0.03125 0,3.90625 0,7.8125 0,11.71875 -4.68888,0.07919 -9.4383,-0.15115 -14.09375,0.10156 -2.06179,0.46553 -1.80895,4.09343 0.35156,4.21094 11.19573,0.03583 22.41044,0.08453 33.60156,-0.02344 2.23671,-0.33101 2.01553,-4.37665 -0.35156,-4.28906 -5.08594,0 -10.17188,0 -15.25781,0 0,-3.90625 0,-7.8125 0,-11.71875 4.20087,-0.09177 8.46421,0.17183 12.63281,-0.10938 2.09249,-0.51077 1.71003,-4.26028 -0.55469,-4.14062 -4.02604,0 -8.05208,0 -12.07812,0 0,-2.53125 0,-5.0625 0,-7.59375 4.87969,-0.0819 9.79694,0.1549 14.65625,-0.10157 2.03981,-0.4656 1.82587,-4.05183 -0.35157,-4.125 -10.41335,-0.04964 -20.83585,-0.01813 -31.25,-0.01562 z m 146.97657,9.11719 c -0.37649,1.15476 0.92182,3.98432 -1,3.59375 -7.09375,0 -14.1875,0 -21.28125,0 0.37648,-1.15477 -0.92183,-3.98433 1,-3.59375 7.09375,0 14.1875,0 21.28125,0 z m -43.35157,1.72656 c -2.41865,0.0012 -2.35068,4.26858 0.0469,4.23437 2.39288,0.0191 4.78652,0.002 7.17969,0.0078 0,5.00781 0,10.01562 0,15.02343 -2.47958,2.9511 -5.74366,5.19487 -8.77344,7.54688 -1.03343,1.30777 0.0556,3.58396 1.80469,3.33594 1.91731,-0.17143 3.06267,-2.12184 4.6177,-3.06293 1.33458,-1.06244 2.71046,-2.31842 3.97605,-3.31989 3.23007,4.29267 9.07212,5.43282 14.2031,5.53434 8.85867,-0.039 17.74152,0.0997 26.58596,-0.0656 2.12795,-0.45362 1.66901,-4.21431 -0.5625,-4.08593 -9.37407,-0.06938 -18.75519,0.13789 -28.125,-0.10157 -3.28989,-0.35124 -7.4029,-1.00165 -9.0625,-4.27343 -0.84716,-2.62911 -0.16154,-5.49921 -0.38281,-8.21875 -0.0868,-3.73866 0.16171,-7.51524 -0.10157,-11.23438 -0.57664,-1.92294 -3.09587,-1.21203 -4.55468,-1.32812 -2.28354,0.0057 -4.56934,-0.01107 -6.85157,0.0078 z m -80.0625,5.8125 c -1.71246,0.11713 -2.76282,2.48539 -1.41184,3.73076 1.47541,1.80679 2.52798,3.96738 3.67747,5.98018 1.21351,1.36675 3.93419,0.40336 3.67969,-1.53125 -0.29609,-1.94287 -1.89317,-3.44861 -2.72349,-5.19115 -0.86808,-1.13043 -1.42487,-3.20225 -3.22183,-2.98854 z m 123.41407,0.27344 c -0.37513,1.17695 0.82727,3.93144 -0.75,3.90625 -7.17709,0 -14.35417,0 -21.53125,0 0.37512,-1.17696 -0.82728,-3.93144 0.75,-3.90625 7.17708,0 14.35416,0 21.53125,0 z m 0,8.125 c -0.37911,1.16256 0.83361,3.91694 -0.75,3.875 -7.17709,0 -14.35417,0 -21.53125,0 0.3791,-1.16257 -0.83361,-3.91695 0.75,-3.875 7.17708,0 14.35416,0 21.53125,0 z"
           id="kokudo"
           style="font-style:normal;font-variant:normal;font-weight:normal;font-stretch:normal;font-size:62.30088425px;line-height:125;font-family:Anito-L-kyohkan;text-align:start;writing-mode:lr-tb;text-anchor:start;display:inline;fill:#ffffff;fill-opacity:1;stroke:none;stroke-width:1px;stroke-linecap:butt;stroke-linejoin:miter;stroke-opacity:1" />
      </g>
      <g
         style="fill:#ffffff"
         transform="matrix(0.04471964,0,0,0.04471964,63.247134,264.74261)"
         id="g5273"
         inkscape:export-xdpi="163.84"
         inkscape:export-ydpi="163.84">
        <g
           style="fill:#ffffff"
           id="g5215">
	<g
   style="fill:#ffffff"
   id="g5213">
		<g
   style="fill:#ffffff"
   id="g5211">
			<path
   style="fill:#ffffff"
   inkscape:connector-curvature="0"
   d="m 39.5,377.35 h 160.9 v 44.1 H 169 c -5.2,0 -9.5,4.2 -9.5,9.5 v 27.5 c 0,5.2 4.2,9.5 9.5,9.5 h 151.2 c 5.2,0 9.5,-4.2 9.5,-9.5 v -27.5 c 0,-5.2 -4.2,-9.5 -9.5,-9.5 h -31.4 v -44.1 h 160.9 c 21.8,0 39.5,-17.7 39.5,-39.5 V 60.75 c 0,-21.8 -17.7,-39.5 -39.5,-39.5 H 39.5 C 17.7,21.25 0,38.95 0,60.75 v 277.1 c 0,21.8 17.7,39.5 39.5,39.5 z M 53.9,75.15 h 381.4 v 248 H 53.9 Z M 339,185.05 h -15.1 c -2.1,-10.6 -6.3,-20.5 -12.1,-29.2 l 10.7,-10.7 c 2.6,-2.6 2.6,-6.8 0,-9.4 l -12.8,-12.8 c -2.6,-2.6 -6.8,-2.6 -9.4,0 l -10.8,10.6 c -8.7,-5.8 -18.6,-10 -29.2,-12.1 v -15.1 c 0,-3.7 -3,-6.7 -6.7,-6.7 h -18.2 c -3.7,0 -6.7,3 -6.7,6.7 v 15.1 c -10.6,2.1 -20.5,6.3 -29.2,12.1 l -10.7,-10.7 c -2.6,-2.6 -6.8,-2.6 -9.4,0 l -12.8,12.8 c -2.6,2.6 -2.6,6.8 0,9.4 l 10.7,10.7 c -5.8,8.7 -10,18.6 -12.1,29.2 h -15.1 c -3.7,0 -6.7,3 -6.7,6.7 v 18.2 c 0,3.7 3,6.7 6.7,6.7 h 15.1 c 2.1,10.6 6.3,20.5 12.1,29.2 l -10.7,10.7 c -2.6,2.6 -2.6,6.8 0,9.4 l 12.8,12.8 c 2.6,2.6 6.8,2.6 9.4,0 l 10.7,-10.7 c 8.7,5.8 18.6,10 29.2,12.1 v 15.1 c 0,3.7 3,6.7 6.7,6.7 h 18.2 c 3.7,0 6.7,-3 6.7,-6.7 v -15.1 c 10.6,-2.1 20.5,-6.3 29.2,-12.1 l 10.7,10.7 c 2.6,2.6 6.8,2.6 9.4,0 l 12.8,-12.8 c 2.6,-2.6 2.6,-6.8 0,-9.4 l -10.7,-10.7 c 5.8,-8.7 10,-18.6 12.1,-29.2 h 15.1 c 3.7,0 6.7,-3 6.7,-6.7 v -18.2 c 0.1,-3.6 -2.9,-6.6 -6.6,-6.6 z m -94.4,52.3 c -20.2,0 -36.5,-16.3 -36.5,-36.5 0,-20.2 16.3,-36.5 36.5,-36.5 20.2,0 36.5,16.3 36.5,36.5 0,20.1 -16.3,36.5 -36.5,36.5 z"
   id="path5209" />

		</g>

	</g>

</g>
        <g
           style="fill:#ffffff"
           id="g5217">
</g>
        <g
           style="fill:#ffffff"
           id="g5219">
</g>
        <g
           style="fill:#ffffff"
           id="g5221">
</g>
        <g
           style="fill:#ffffff"
           id="g5223">
</g>
        <g
           style="fill:#ffffff"
           id="g5225">
</g>
        <g
           style="fill:#ffffff"
           id="g5227">
</g>
        <g
           style="fill:#ffffff"
           id="g5229">
</g>
        <g
           style="fill:#ffffff"
           id="g5231">
</g>
        <g
           style="fill:#ffffff"
           id="g5233">
</g>
        <g
           style="fill:#ffffff"
           id="g5235">
</g>
        <g
           style="fill:#ffffff"
           id="g5237">
</g>
        <g
           style="fill:#ffffff"
           id="g5239">
</g>
        <g
           style="fill:#ffffff"
           id="g5241">
</g>
        <g
           style="fill:#ffffff"
           id="g5243">
</g>
        <g
           style="fill:#ffffff"
           id="g5245">
</g>
      </g>
    </g>
  </g>
</svg>
